<svg xmlns="http://www.w3.org/2000/svg" xmlns:xlink="http://www.w3.org/1999/xlink" width="1066" zoomAndPan="magnify" viewBox="0 0 799.92 341.999987" height="456" preserveAspectRatio="xMidYMid meet" version="1.0"><defs><clipPath id="id1"><path d="M 47.917969 72.628906 L 285.320312 72.628906 L 285.320312 219.070312 L 47.917969 219.070312 Z M 47.917969 72.628906 " clip-rule="nonzero"/></clipPath><clipPath id="id2"><path d="M 399.707031 286.519531 L 439.1875 286.519531 L 439.1875 297.511719 L 399.707031 297.511719 Z M 399.707031 286.519531 " clip-rule="nonzero"/></clipPath><clipPath id="id3"><path d="M 451.359375 286.519531 L 490.84375 286.519531 L 490.84375 297.511719 L 451.359375 297.511719 Z M 451.359375 286.519531 " clip-rule="nonzero"/></clipPath><clipPath id="id4"><path d="M 503.015625 286.519531 L 542.496094 286.519531 L 542.496094 297.511719 L 503.015625 297.511719 Z M 503.015625 286.519531 " clip-rule="nonzero"/></clipPath><clipPath id="id5"><path d="M 554.667969 286.519531 L 594.152344 286.519531 L 594.152344 297.511719 L 554.667969 297.511719 Z M 554.667969 286.519531 " clip-rule="nonzero"/></clipPath><clipPath id="id6"><path d="M 606.324219 286.519531 L 645.804688 286.519531 L 645.804688 297.511719 L 606.324219 297.511719 Z M 606.324219 286.519531 " clip-rule="nonzero"/></clipPath><clipPath id="id7"><path d="M 657.976562 286.519531 L 697.460938 286.519531 L 697.460938 297.511719 L 657.976562 297.511719 Z M 657.976562 286.519531 " clip-rule="nonzero"/></clipPath><clipPath id="id8"><path d="M 709.632812 286.519531 L 749.113281 286.519531 L 749.113281 297.511719 L 709.632812 297.511719 Z M 709.632812 286.519531 " clip-rule="nonzero"/></clipPath></defs><g clip-path="url(#id1)"><path fill="#ea574a" d="M 234.039062 72.628906 C 213.148438 72.628906 199.851562 81.582031 190.625 93.238281 C 182.761719 79.136719 168.652344 72.628906 149.933594 72.628906 C 130.671875 72.628906 116.5625 82.933594 109.507812 92.15625 L 108.96875 92.15625 L 108.96875 76.425781 L 47.921875 76.425781 L 47.921875 219.070312 L 110.589844 219.070312 L 110.589844 143.410156 C 110.589844 128.492188 117.648438 123.613281 123.613281 123.613281 C 132.023438 123.613281 135.277344 129.851562 135.277344 144.222656 L 135.277344 219.070312 L 197.953125 219.070312 L 197.953125 143.410156 C 197.953125 130.390625 203.648438 123.613281 210.976562 123.613281 C 218.847656 123.613281 222.644531 127.683594 222.644531 143.140625 L 222.644531 219.070312 L 285.3125 219.070312 L 285.3125 132.289062 C 285.3125 108.699219 274.734375 72.628906 234.039062 72.628906 " fill-opacity="1" fill-rule="nonzero"/></g><g clip-path="url(#id2)"><path fill="#279bb7" d="M 399.71875 286.519531 L 439.175781 286.519531 L 439.175781 297.515625 L 399.71875 297.515625 Z M 399.71875 286.519531 " fill-opacity="1" fill-rule="nonzero"/></g><path fill="#ea574a" d="M 387.078125 111.433594 C 399.558594 111.433594 407.699219 118.765625 407.699219 128.804688 L 364.5625 128.804688 C 365.644531 120.9375 373.242188 111.433594 387.078125 111.433594 M 433.792969 189.761719 C 442.253906 189.761719 449.53125 191.253906 455.457031 194.058594 C 456.109375 193.125 456.757812 192.195312 457.347656 191.226562 L 412.851562 168.699219 C 409.050781 173.585938 400.910156 178.742188 389.519531 178.742188 C 378.125 178.742188 366.183594 172.5 365.101562 162.460938 L 461.144531 162.460938 C 461.414062 159.203125 461.691406 153.78125 461.691406 149.160156 C 461.691406 104.105469 431.300781 71 386.535156 71 C 342.582031 71 307.042969 100.582031 307.042969 147.800781 C 307.042969 198.285156 346.382812 224.605469 387.894531 224.605469 C 389.554688 224.605469 391.175781 224.550781 392.800781 224.480469 L 392.800781 189.761719 Z M 433.792969 189.761719 " fill-opacity="1" fill-rule="nonzero"/><path fill="#279bb7" d="M 426.472656 217.765625 L 426.472656 230.21875 L 431.933594 230.21875 C 435.867188 230.21875 439.800781 228.359375 439.800781 223.773438 C 439.800781 218.855469 435.867188 217.765625 431.933594 217.765625 Z M 426.472656 250 L 426.472656 274.914062 L 400.582031 274.914062 L 400.582031 197.550781 L 433.789062 197.550781 C 449.519531 197.550781 465.472656 203.558594 465.472656 223.558594 C 465.472656 242.683594 449.851562 250 433.789062 250 Z M 426.472656 250 " fill-opacity="1" fill-rule="nonzero"/><g clip-path="url(#id3)"><path fill="#ea574a" d="M 451.375 286.519531 L 490.832031 286.519531 L 490.832031 297.515625 L 451.375 297.515625 Z M 451.375 286.519531 " fill-opacity="1" fill-rule="nonzero"/></g><g clip-path="url(#id4)"><path fill="#ea574a" d="M 503.027344 286.519531 L 542.484375 286.519531 L 542.484375 297.515625 L 503.027344 297.515625 Z M 503.027344 286.519531 " fill-opacity="1" fill-rule="nonzero"/></g><g clip-path="url(#id5)"><path fill="#ea574a" d="M 554.683594 286.519531 L 594.140625 286.519531 L 594.140625 297.515625 L 554.683594 297.515625 Z M 554.683594 286.519531 " fill-opacity="1" fill-rule="nonzero"/></g><g clip-path="url(#id6)"><path fill="#ea574a" d="M 606.335938 286.519531 L 645.792969 286.519531 L 645.792969 297.515625 L 606.335938 297.515625 Z M 606.335938 286.519531 " fill-opacity="1" fill-rule="nonzero"/></g><g clip-path="url(#id7)"><path fill="#ea574a" d="M 657.988281 286.519531 L 697.449219 286.519531 L 697.449219 297.515625 L 657.988281 297.515625 Z M 657.988281 286.519531 " fill-opacity="1" fill-rule="nonzero"/></g><path fill="#ea574a" d="M 558.011719 111.503906 C 570.488281 111.503906 578.628906 118.835938 578.628906 128.886719 L 535.496094 128.886719 C 536.578125 121.011719 544.175781 111.503906 558.011719 111.503906 M 509.324219 210.234375 C 518.039062 216.175781 528.042969 220.3125 538.636719 222.617188 L 551.515625 189.894531 L 589.773438 189.894531 L 599.96875 216.066406 C 612.175781 210.25 621.898438 201.769531 628.277344 191.355469 L 583.78125 168.8125 C 579.984375 173.699219 571.84375 178.863281 560.449219 178.863281 C 549.058594 178.863281 537.117188 172.613281 536.035156 162.570312 L 632.074219 162.570312 C 632.34375 159.308594 632.613281 153.878906 632.613281 149.253906 C 632.613281 104.167969 602.226562 71.027344 557.460938 71.027344 C 513.511719 71.027344 477.972656 100.636719 477.972656 147.894531 C 477.972656 164.554688 482.269531 178.570312 489.492188 189.890625 L 509.324219 189.890625 Z M 509.324219 210.234375 " fill-opacity="1" fill-rule="nonzero"/><path fill="#ea574a" d="M 686.347656 189.894531 L 748.996094 189.894531 L 748.996094 175.332031 C 746.558594 176.148438 741.671875 176.960938 737.601562 176.960938 C 727.023438 176.960938 720.78125 173.160156 720.78125 159.308594 L 720.78125 121.285156 L 751.710938 121.285156 L 751.710938 76.464844 L 720.78125 76.464844 L 720.78125 44.410156 L 660.007812 44.410156 L 660.007812 76.464844 L 640.203125 76.464844 L 640.203125 121.285156 L 660.28125 121.285156 L 660.28125 172.34375 C 660.28125 178.046875 660.796875 183.246094 661.8125 187.960938 C 670.800781 188.753906 679.417969 191.582031 686.351562 196.015625 Z M 686.347656 189.894531 " fill-opacity="1" fill-rule="nonzero"/><path fill="#279bb7" d="M 475.324219 197.691406 L 501.539062 197.691406 L 501.539062 252.808594 L 527.210938 252.808594 L 527.210938 275.117188 L 475.324219 275.117188 Z M 475.324219 197.691406 " fill-opacity="1" fill-rule="nonzero"/><path fill="#279bb7" d="M 570.253906 224.703125 L 563.917969 243.84375 L 576.480469 243.84375 Z M 556.816406 197.683594 L 584.457031 197.683594 L 614.605469 275.117188 L 586.308594 275.117188 L 582.269531 263.746094 L 557.691406 263.746094 L 553.867188 275.117188 L 526.339844 275.117188 Z M 556.816406 197.683594 " fill-opacity="1" fill-rule="nonzero"/><path fill="#279bb7" d="M 656.660156 195.503906 C 668.566406 195.503906 679.816406 199.660156 686.917969 206.222656 L 670.964844 225.46875 C 668.128906 221.640625 663.539062 219.667969 658.183594 219.667969 C 649.554688 219.667969 642.5625 226.121094 642.5625 236.402344 C 642.5625 246.464844 649.773438 252.917969 658.183594 252.917969 C 664.085938 252.917969 668.5625 250.078125 670.964844 246.6875 L 686.917969 265.828125 C 680.035156 272.714844 669.546875 277.308594 656.660156 277.308594 C 633.285156 277.308594 614.605469 260.792969 614.605469 236.402344 C 614.605469 211.578125 633.285156 195.5 656.660156 195.5 " fill-opacity="1" fill-rule="nonzero"/><path fill="#279bb7" d="M 694.132812 197.691406 L 747.332031 197.691406 L 747.332031 219.34375 L 718.597656 219.34375 L 718.597656 226.019531 L 745.578125 226.019531 L 745.578125 246.25 L 718.597656 246.25 L 718.597656 253.46875 L 749.1875 253.46875 L 749.1875 275.121094 L 694.132812 275.121094 Z M 694.132812 197.691406 " fill-opacity="1" fill-rule="nonzero"/><g clip-path="url(#id8)"><path fill="#279bb7" d="M 709.644531 286.519531 L 749.101562 286.519531 L 749.101562 297.515625 L 709.644531 297.515625 Z M 709.644531 286.519531 " fill-opacity="1" fill-rule="nonzero"/></g></svg>